<?xml version="1.0" standalone="no"?>
<!DOCTYPE svg PUBLIC "-//W3C//DTD SVG 20010904//EN"
 "http://www.w3.org/TR/2001/REC-SVG-20010904/DTD/svg10.dtd">
<svg version="1.0" xmlns="http://www.w3.org/2000/svg"
 width="3334.000000pt" height="3334.000000pt" viewBox="0 0 3334.000000 3334.000000"
 preserveAspectRatio="xMidYMid meet">
<metadata>
Created by potrace 1.11, written by Peter Selinger 2001-2013
</metadata>
<g transform="translate(0.000000,3334.000000) scale(0.100000,-0.100000)"
fill="#000000" stroke="none">
<path d="M8332 23023 l0 -5318 82 -1 c112 -2 378 -14 407 -19 13 -2 53 -6 89
-10 94 -8 150 -14 193 -20 20 -3 55 -7 77 -10 21 -3 52 -8 67 -10 15 -2 44 -6
63 -10 19 -3 84 -15 143 -25 60 -11 111 -21 115 -24 4 -2 25 -7 47 -10 91 -15
413 -102 590 -161 311 -103 543 -199 832 -344 162 -81 219 -112 413 -226 186
-110 655 -446 754 -540 6 -6 49 -44 96 -85 358 -312 696 -688 971 -1080 433
-618 740 -1293 920 -2023 16 -66 31 -129 33 -140 15 -72 46 -227 51 -257 3
-19 8 -46 10 -60 3 -14 7 -43 10 -65 3 -22 7 -50 9 -62 3 -12 7 -48 11 -80 3
-32 7 -65 10 -73 2 -8 7 -55 10 -104 4 -50 9 -98 11 -109 21 -112 21 -812 -1
-962 -2 -16 -7 -65 -10 -108 -4 -43 -8 -88 -10 -100 -2 -12 -6 -49 -10 -82 -4
-32 -8 -66 -10 -75 -1 -8 -6 -37 -10 -65 -4 -27 -9 -59 -10 -70 -12 -77 -17
-102 -20 -115 -3 -8 -7 -33 -11 -55 -3 -22 -14 -76 -24 -120 -11 -44 -21 -91
-24 -105 -3 -14 -9 -40 -15 -57 -5 -18 -8 -33 -6 -33 3 0 0 -11 -5 -25 -5 -14
-12 -36 -14 -48 -28 -137 -181 -586 -270 -792 -214 -495 -436 -881 -734 -1278
-88 -118 -215 -277 -257 -323 -5 -6 -39 -44 -75 -85 -105 -120 -406 -417 -525
-519 -60 -51 -112 -96 -115 -99 -3 -4 -25 -22 -50 -41 -25 -19 -51 -40 -58
-47 -58 -55 -440 -325 -582 -410 -62 -37 -203 -120 -260 -152 -108 -61 -457
-229 -595 -285 -77 -32 -149 -62 -160 -67 -20 -8 -71 -27 -225 -80 -276 -96
-669 -194 -945 -235 -16 -3 -52 -9 -80 -14 -27 -5 -75 -12 -105 -15 -30 -3
-66 -8 -80 -10 -25 -4 -95 -12 -200 -20 -89 -8 -236 -16 -365 -20 -66 -2 -128
-4 -137 -4 -17 -1 -18 -23 -18 -320 l0 -318 98 3 c195 7 378 15 427 19 96 8
180 16 210 20 17 3 56 7 89 10 32 3 61 7 65 9 3 2 33 6 66 10 92 9 261 40 455
82 63 14 126 27 140 30 91 18 350 92 525 150 450 148 882 341 1265 566 108 63
256 152 260 157 3 3 52 37 110 75 97 64 349 245 376 270 7 6 27 22 45 36 54
41 228 187 308 259 213 191 386 365 586 592 227 257 428 530 660 894 94 148
375 673 375 701 0 3 12 29 26 58 14 28 35 73 46 100 10 27 27 68 37 90 88 195
302 853 316 973 2 11 6 30 9 41 4 11 9 29 11 39 2 10 10 50 19 88 9 39 17 81
20 95 2 14 11 63 20 110 8 47 18 99 20 115 3 17 7 44 10 60 3 17 10 68 16 115
6 47 13 96 15 110 7 48 22 214 30 330 3 36 8 153 11 260 4 107 8 197 10 199 1
2 2251 3 4998 3 l4996 0 0 8334 0 8334 -8334 0 -8334 0 0 -5317z"/>
</g>
</svg>
